<svg xmlns="http://www.w3.org/2000/svg" width="128" height="128" viewBox="0 0 128 128" role="img" aria-label="Conhecimento">
  <defs>
    <linearGradient id="g" x1="0" x2="1" y1="0" y2="1">
      <stop offset="0" stop-color="#0057B8" stop-opacity="0.18"/>
      <stop offset="1" stop-color="#0B6EF6" stop-opacity="0.08"/>
    </linearGradient>
  </defs>
  <rect x="6" y="6" width="116" height="116" rx="28" fill="url(#g)" stroke="#E3EAF6" stroke-width="2"/>
  <path d="M30 44c14 0 22 6 34 12 12-6 20-12 34-12v44c-14 0-22 6-34 12-12-6-20-12-34-12V44z"
        fill="#ffffff" stroke="#BBD3F5" stroke-width="2"/>
  <path d="M64 56v54" stroke="#BBD3F5" stroke-width="2"/>
  <path d="M38 60h20M38 70h20M38 80h20" stroke="#0057B8" stroke-opacity="0.55" stroke-width="3" stroke-linecap="round"/>
  <path d="M70 60h20M70 70h20M70 80h20" stroke="#0057B8" stroke-opacity="0.35" stroke-width="3" stroke-linecap="round"/>
  <circle cx="92" cy="36" r="10" fill="#0B6EF6" fill-opacity="0.15" stroke="#0B6EF6" stroke-opacity="0.35"/>
  <path d="M92 30a5 5 0 0 1 3 9c-.6.5-1 1.3-1 2v1h-4v-1c0-.7-.4-1.5-1-2a5 5 0 0 1 3-9z"
        fill="#0B6EF6" fill-opacity="0.45"/>
</svg>
